<mxfile host="app.diagrams.net" agent="Mozilla/5.0 (Windows NT 10.0; Win64; x64) AppleWebKit/537.36 (KHTML, like Gecko) Chrome/135.0.0.0 Safari/537.36" version="26.2.14">
  <diagram name="Strona-1" id="3gikFZh17QTlchzR9tAJ">
    <mxGraphModel dx="2391" dy="1265" grid="1" gridSize="10" guides="1" tooltips="1" connect="1" arrows="1" fold="1" page="1" pageScale="1" pageWidth="827" pageHeight="1169" math="0" shadow="0">
      <root>
        <mxCell id="0" />
        <mxCell id="1" parent="0" />
        <mxCell id="Yvp6jD7t4m_mrtLre_dv-1" value="klienci" style="rounded=0;whiteSpace=wrap;html=1;" parent="1" vertex="1">
          <mxGeometry x="290" y="390" width="120" height="60" as="geometry" />
        </mxCell>
        <mxCell id="Yvp6jD7t4m_mrtLre_dv-2" value="&lt;u&gt;id_klienta&lt;/u&gt;" style="ellipse;whiteSpace=wrap;html=1;" parent="1" vertex="1">
          <mxGeometry x="40" y="230" width="120" height="80" as="geometry" />
        </mxCell>
        <mxCell id="Yvp6jD7t4m_mrtLre_dv-3" value="imie" style="ellipse;whiteSpace=wrap;html=1;" parent="1" vertex="1">
          <mxGeometry x="160" y="210" width="120" height="80" as="geometry" />
        </mxCell>
        <mxCell id="Yvp6jD7t4m_mrtLre_dv-4" value="nazwisko" style="ellipse;whiteSpace=wrap;html=1;" parent="1" vertex="1">
          <mxGeometry x="280" y="200" width="120" height="80" as="geometry" />
        </mxCell>
        <mxCell id="Yvp6jD7t4m_mrtLre_dv-5" value="nr_telefonu" style="ellipse;whiteSpace=wrap;html=1;" parent="1" vertex="1">
          <mxGeometry x="410" y="200" width="120" height="80" as="geometry" />
        </mxCell>
        <mxCell id="Yvp6jD7t4m_mrtLre_dv-6" value="" style="endArrow=none;html=1;rounded=0;" parent="1" source="Yvp6jD7t4m_mrtLre_dv-1" target="Yvp6jD7t4m_mrtLre_dv-5" edge="1">
          <mxGeometry width="50" height="50" relative="1" as="geometry">
            <mxPoint x="1020" y="830" as="sourcePoint" />
            <mxPoint x="1070" y="780" as="targetPoint" />
          </mxGeometry>
        </mxCell>
        <mxCell id="Yvp6jD7t4m_mrtLre_dv-7" value="" style="endArrow=none;html=1;rounded=0;" parent="1" source="Yvp6jD7t4m_mrtLre_dv-2" target="Yvp6jD7t4m_mrtLre_dv-1" edge="1">
          <mxGeometry width="50" height="50" relative="1" as="geometry">
            <mxPoint x="660" y="550" as="sourcePoint" />
            <mxPoint x="710" y="500" as="targetPoint" />
          </mxGeometry>
        </mxCell>
        <mxCell id="Yvp6jD7t4m_mrtLre_dv-8" value="" style="endArrow=none;html=1;rounded=0;" parent="1" source="Yvp6jD7t4m_mrtLre_dv-3" target="Yvp6jD7t4m_mrtLre_dv-1" edge="1">
          <mxGeometry width="50" height="50" relative="1" as="geometry">
            <mxPoint x="800" y="660" as="sourcePoint" />
            <mxPoint x="850" y="610" as="targetPoint" />
          </mxGeometry>
        </mxCell>
        <mxCell id="Yvp6jD7t4m_mrtLre_dv-9" value="" style="endArrow=none;html=1;rounded=0;" parent="1" source="Yvp6jD7t4m_mrtLre_dv-1" target="Yvp6jD7t4m_mrtLre_dv-4" edge="1">
          <mxGeometry width="50" height="50" relative="1" as="geometry">
            <mxPoint x="900" y="650" as="sourcePoint" />
            <mxPoint x="950" y="600" as="targetPoint" />
          </mxGeometry>
        </mxCell>
        <mxCell id="Yvp6jD7t4m_mrtLre_dv-10" value="zgłoszenia" style="rounded=0;whiteSpace=wrap;html=1;" parent="1" vertex="1">
          <mxGeometry x="1380" y="300" width="120" height="60" as="geometry" />
        </mxCell>
        <mxCell id="Yvp6jD7t4m_mrtLre_dv-11" value="&lt;u&gt;id_zgloszenia&lt;/u&gt;" style="ellipse;whiteSpace=wrap;html=1;" parent="1" vertex="1">
          <mxGeometry x="1140" y="180" width="120" height="80" as="geometry" />
        </mxCell>
        <mxCell id="Yvp6jD7t4m_mrtLre_dv-12" value="id_sprzetu" style="ellipse;whiteSpace=wrap;html=1;" parent="1" vertex="1">
          <mxGeometry x="1210" y="90" width="130" height="90" as="geometry" />
        </mxCell>
        <mxCell id="Yvp6jD7t4m_mrtLre_dv-13" value="" style="endArrow=none;html=1;rounded=0;" parent="1" source="Yvp6jD7t4m_mrtLre_dv-10" target="Yvp6jD7t4m_mrtLre_dv-11" edge="1">
          <mxGeometry width="50" height="50" relative="1" as="geometry">
            <mxPoint x="1020" y="830" as="sourcePoint" />
            <mxPoint x="1070" y="780" as="targetPoint" />
          </mxGeometry>
        </mxCell>
        <mxCell id="Yvp6jD7t4m_mrtLre_dv-14" value="" style="endArrow=none;html=1;rounded=0;" parent="1" source="Yvp6jD7t4m_mrtLre_dv-12" target="Yvp6jD7t4m_mrtLre_dv-10" edge="1">
          <mxGeometry width="50" height="50" relative="1" as="geometry">
            <mxPoint x="870" y="800" as="sourcePoint" />
            <mxPoint x="920" y="750" as="targetPoint" />
          </mxGeometry>
        </mxCell>
        <mxCell id="Yvp6jD7t4m_mrtLre_dv-15" value="status" style="ellipse;whiteSpace=wrap;html=1;" parent="1" vertex="1">
          <mxGeometry x="1330" y="50" width="120" height="80" as="geometry" />
        </mxCell>
        <mxCell id="Yvp6jD7t4m_mrtLre_dv-16" value="" style="endArrow=none;html=1;rounded=0;" parent="1" source="Yvp6jD7t4m_mrtLre_dv-10" target="Yvp6jD7t4m_mrtLre_dv-15" edge="1">
          <mxGeometry width="50" height="50" relative="1" as="geometry">
            <mxPoint x="1240" y="650" as="sourcePoint" />
            <mxPoint x="1290" y="600" as="targetPoint" />
          </mxGeometry>
        </mxCell>
        <mxCell id="Yvp6jD7t4m_mrtLre_dv-17" value="pracownicy" style="rounded=0;whiteSpace=wrap;html=1;" parent="1" vertex="1">
          <mxGeometry x="910" y="520" width="120" height="60" as="geometry" />
        </mxCell>
        <mxCell id="Yvp6jD7t4m_mrtLre_dv-18" value="&lt;u&gt;id_pracownika&lt;/u&gt;" style="ellipse;whiteSpace=wrap;html=1;" parent="1" vertex="1">
          <mxGeometry x="910" y="630" width="120" height="80" as="geometry" />
        </mxCell>
        <mxCell id="Yvp6jD7t4m_mrtLre_dv-19" value="imie" style="ellipse;whiteSpace=wrap;html=1;" parent="1" vertex="1">
          <mxGeometry x="1044" y="610" width="120" height="80" as="geometry" />
        </mxCell>
        <mxCell id="Yvp6jD7t4m_mrtLre_dv-20" value="nazwisko" style="ellipse;whiteSpace=wrap;html=1;" parent="1" vertex="1">
          <mxGeometry x="1130" y="540" width="120" height="80" as="geometry" />
        </mxCell>
        <mxCell id="Yvp6jD7t4m_mrtLre_dv-21" value="" style="endArrow=none;html=1;rounded=0;" parent="1" source="Yvp6jD7t4m_mrtLre_dv-18" target="Yvp6jD7t4m_mrtLre_dv-17" edge="1">
          <mxGeometry width="50" height="50" relative="1" as="geometry">
            <mxPoint x="730" y="840" as="sourcePoint" />
            <mxPoint x="780" y="790" as="targetPoint" />
          </mxGeometry>
        </mxCell>
        <mxCell id="Yvp6jD7t4m_mrtLre_dv-22" value="" style="endArrow=none;html=1;rounded=0;" parent="1" source="Yvp6jD7t4m_mrtLre_dv-19" target="Yvp6jD7t4m_mrtLre_dv-17" edge="1">
          <mxGeometry width="50" height="50" relative="1" as="geometry">
            <mxPoint x="730" y="820" as="sourcePoint" />
            <mxPoint x="780" y="770" as="targetPoint" />
          </mxGeometry>
        </mxCell>
        <mxCell id="Yvp6jD7t4m_mrtLre_dv-23" value="" style="endArrow=none;html=1;rounded=0;" parent="1" source="Yvp6jD7t4m_mrtLre_dv-17" target="Yvp6jD7t4m_mrtLre_dv-20" edge="1">
          <mxGeometry width="50" height="50" relative="1" as="geometry">
            <mxPoint x="1040" y="790" as="sourcePoint" />
            <mxPoint x="1090" y="740" as="targetPoint" />
          </mxGeometry>
        </mxCell>
        <mxCell id="Yvp6jD7t4m_mrtLre_dv-24" value="data_przyjecia" style="ellipse;whiteSpace=wrap;html=1;" parent="1" vertex="1">
          <mxGeometry x="1470" y="40" width="120" height="80" as="geometry" />
        </mxCell>
        <mxCell id="Yvp6jD7t4m_mrtLre_dv-25" value="data_zakonczenia" style="ellipse;whiteSpace=wrap;html=1;" parent="1" vertex="1">
          <mxGeometry x="1600" y="50" width="120" height="80" as="geometry" />
        </mxCell>
        <mxCell id="Yvp6jD7t4m_mrtLre_dv-26" value="" style="endArrow=none;html=1;rounded=0;" parent="1" source="Yvp6jD7t4m_mrtLre_dv-10" target="Yvp6jD7t4m_mrtLre_dv-24" edge="1">
          <mxGeometry width="50" height="50" relative="1" as="geometry">
            <mxPoint x="1260" y="640" as="sourcePoint" />
            <mxPoint x="1310" y="590" as="targetPoint" />
          </mxGeometry>
        </mxCell>
        <mxCell id="Yvp6jD7t4m_mrtLre_dv-27" value="" style="endArrow=none;html=1;rounded=0;" parent="1" source="Yvp6jD7t4m_mrtLre_dv-25" target="Yvp6jD7t4m_mrtLre_dv-10" edge="1">
          <mxGeometry width="50" height="50" relative="1" as="geometry">
            <mxPoint x="1220" y="650" as="sourcePoint" />
            <mxPoint x="1270" y="600" as="targetPoint" />
          </mxGeometry>
        </mxCell>
        <mxCell id="Yvp6jD7t4m_mrtLre_dv-28" value="id_pracownika" style="ellipse;whiteSpace=wrap;html=1;" parent="1" vertex="1">
          <mxGeometry x="1680" y="110" width="120" height="80" as="geometry" />
        </mxCell>
        <mxCell id="Yvp6jD7t4m_mrtLre_dv-29" value="" style="endArrow=none;html=1;rounded=0;" parent="1" source="Yvp6jD7t4m_mrtLre_dv-10" target="Yvp6jD7t4m_mrtLre_dv-28" edge="1">
          <mxGeometry width="50" height="50" relative="1" as="geometry">
            <mxPoint x="1280" y="520.0038409521231" as="sourcePoint" />
            <mxPoint x="1515.7600000000002" y="407.64" as="targetPoint" />
            <Array as="points" />
          </mxGeometry>
        </mxCell>
        <mxCell id="Yvp6jD7t4m_mrtLre_dv-30" value="sprzęty" style="rounded=0;whiteSpace=wrap;html=1;" parent="1" vertex="1">
          <mxGeometry x="660" y="370" width="120" height="60" as="geometry" />
        </mxCell>
        <mxCell id="Yvp6jD7t4m_mrtLre_dv-31" value="id_klienta" style="ellipse;whiteSpace=wrap;html=1;" parent="1" vertex="1">
          <mxGeometry x="690" y="180" width="120" height="80" as="geometry" />
        </mxCell>
        <mxCell id="Yvp6jD7t4m_mrtLre_dv-32" value="" style="endArrow=none;html=1;rounded=0;" parent="1" source="Yvp6jD7t4m_mrtLre_dv-31" target="Yvp6jD7t4m_mrtLre_dv-30" edge="1">
          <mxGeometry width="50" height="50" relative="1" as="geometry">
            <mxPoint x="1450" y="770" as="sourcePoint" />
            <mxPoint x="1500" y="720" as="targetPoint" />
          </mxGeometry>
        </mxCell>
        <mxCell id="Yvp6jD7t4m_mrtLre_dv-33" value="" style="endArrow=none;html=1;rounded=0;" parent="1" source="Yvp6jD7t4m_mrtLre_dv-34" target="Yvp6jD7t4m_mrtLre_dv-30" edge="1">
          <mxGeometry width="50" height="50" relative="1" as="geometry">
            <mxPoint x="1300" y="950" as="sourcePoint" />
            <mxPoint x="1350" y="900" as="targetPoint" />
          </mxGeometry>
        </mxCell>
        <mxCell id="Yvp6jD7t4m_mrtLre_dv-34" value="rodzaj" style="ellipse;whiteSpace=wrap;html=1;" parent="1" vertex="1">
          <mxGeometry x="820" y="190" width="120" height="80" as="geometry" />
        </mxCell>
        <mxCell id="Yvp6jD7t4m_mrtLre_dv-35" value="&lt;u&gt;id_sprzetu&lt;/u&gt;" style="ellipse;whiteSpace=wrap;html=1;" parent="1" vertex="1">
          <mxGeometry x="560" y="180" width="120" height="80" as="geometry" />
        </mxCell>
        <mxCell id="Yvp6jD7t4m_mrtLre_dv-36" value="" style="endArrow=none;html=1;rounded=0;" parent="1" source="Yvp6jD7t4m_mrtLre_dv-30" target="Yvp6jD7t4m_mrtLre_dv-35" edge="1">
          <mxGeometry width="50" height="50" relative="1" as="geometry">
            <mxPoint x="1590" y="820" as="sourcePoint" />
            <mxPoint x="1640" y="770" as="targetPoint" />
          </mxGeometry>
        </mxCell>
        <mxCell id="Yvp6jD7t4m_mrtLre_dv-37" value="" style="endArrow=classic;html=1;rounded=0;" parent="1" source="Yvp6jD7t4m_mrtLre_dv-1" target="Yvp6jD7t4m_mrtLre_dv-30" edge="1">
          <mxGeometry width="50" height="50" relative="1" as="geometry">
            <mxPoint x="950" y="240" as="sourcePoint" />
            <mxPoint x="1000" y="190" as="targetPoint" />
          </mxGeometry>
        </mxCell>
        <mxCell id="Yvp6jD7t4m_mrtLre_dv-38" value="usterka" style="ellipse;whiteSpace=wrap;html=1;" parent="1" vertex="1">
          <mxGeometry x="1720" y="190" width="120" height="80" as="geometry" />
        </mxCell>
        <mxCell id="Yvp6jD7t4m_mrtLre_dv-39" value="" style="endArrow=none;html=1;rounded=0;" parent="1" source="Yvp6jD7t4m_mrtLre_dv-10" target="Yvp6jD7t4m_mrtLre_dv-38" edge="1">
          <mxGeometry width="50" height="50" relative="1" as="geometry">
            <mxPoint x="2006.100364443112" y="310" as="sourcePoint" />
            <mxPoint x="2190" y="270" as="targetPoint" />
          </mxGeometry>
        </mxCell>
        <mxCell id="Yvp6jD7t4m_mrtLre_dv-40" value="historie_dzialań" style="rounded=0;whiteSpace=wrap;html=1;" parent="1" vertex="1">
          <mxGeometry x="1480" y="510" width="120" height="60" as="geometry" />
        </mxCell>
        <mxCell id="Yvp6jD7t4m_mrtLre_dv-41" value="id_zgloszenia" style="ellipse;whiteSpace=wrap;html=1;" parent="1" vertex="1">
          <mxGeometry x="1660" y="430" width="120" height="80" as="geometry" />
        </mxCell>
        <mxCell id="Yvp6jD7t4m_mrtLre_dv-42" value="id_pracownika" style="ellipse;whiteSpace=wrap;html=1;" parent="1" vertex="1">
          <mxGeometry x="1630" y="530" width="120" height="80" as="geometry" />
        </mxCell>
        <mxCell id="Yvp6jD7t4m_mrtLre_dv-43" value="data" style="ellipse;whiteSpace=wrap;html=1;" parent="1" vertex="1">
          <mxGeometry x="1457" y="600" width="120" height="80" as="geometry" />
        </mxCell>
        <mxCell id="Yvp6jD7t4m_mrtLre_dv-44" value="opis" style="ellipse;whiteSpace=wrap;html=1;" parent="1" vertex="1">
          <mxGeometry x="1310" y="540" width="120" height="80" as="geometry" />
        </mxCell>
        <mxCell id="Yvp6jD7t4m_mrtLre_dv-45" value="" style="endArrow=none;html=1;rounded=0;" parent="1" source="Yvp6jD7t4m_mrtLre_dv-44" target="Yvp6jD7t4m_mrtLre_dv-40" edge="1">
          <mxGeometry width="50" height="50" relative="1" as="geometry">
            <mxPoint x="1320" y="540" as="sourcePoint" />
            <mxPoint x="1370" y="490" as="targetPoint" />
          </mxGeometry>
        </mxCell>
        <mxCell id="Yvp6jD7t4m_mrtLre_dv-46" value="" style="endArrow=none;html=1;rounded=0;" parent="1" source="Yvp6jD7t4m_mrtLre_dv-43" target="Yvp6jD7t4m_mrtLre_dv-40" edge="1">
          <mxGeometry width="50" height="50" relative="1" as="geometry">
            <mxPoint x="1400" y="690" as="sourcePoint" />
            <mxPoint x="1450" y="640" as="targetPoint" />
          </mxGeometry>
        </mxCell>
        <mxCell id="Yvp6jD7t4m_mrtLre_dv-47" value="" style="endArrow=none;html=1;rounded=0;" parent="1" source="Yvp6jD7t4m_mrtLre_dv-40" target="Yvp6jD7t4m_mrtLre_dv-41" edge="1">
          <mxGeometry width="50" height="50" relative="1" as="geometry">
            <mxPoint x="1460" y="440" as="sourcePoint" />
            <mxPoint x="1510" y="390" as="targetPoint" />
          </mxGeometry>
        </mxCell>
        <mxCell id="Yvp6jD7t4m_mrtLre_dv-48" value="" style="endArrow=none;html=1;rounded=0;" parent="1" source="Yvp6jD7t4m_mrtLre_dv-40" target="Yvp6jD7t4m_mrtLre_dv-42" edge="1">
          <mxGeometry width="50" height="50" relative="1" as="geometry">
            <mxPoint x="1710" y="670" as="sourcePoint" />
            <mxPoint x="1760" y="620" as="targetPoint" />
          </mxGeometry>
        </mxCell>
        <mxCell id="Yvp6jD7t4m_mrtLre_dv-49" value="" style="endArrow=classic;html=1;rounded=0;" parent="1" source="Yvp6jD7t4m_mrtLre_dv-10" target="Yvp6jD7t4m_mrtLre_dv-40" edge="1">
          <mxGeometry width="50" height="50" relative="1" as="geometry">
            <mxPoint x="1430" y="460" as="sourcePoint" />
            <mxPoint x="1480" y="410" as="targetPoint" />
          </mxGeometry>
        </mxCell>
        <mxCell id="Yvp6jD7t4m_mrtLre_dv-50" value="&lt;u&gt;id_dzialania&lt;/u&gt;" style="ellipse;whiteSpace=wrap;html=1;" parent="1" vertex="1">
          <mxGeometry x="1330" y="430" width="120" height="80" as="geometry" />
        </mxCell>
        <mxCell id="Yvp6jD7t4m_mrtLre_dv-51" value="" style="endArrow=none;html=1;rounded=0;" parent="1" source="Yvp6jD7t4m_mrtLre_dv-50" target="Yvp6jD7t4m_mrtLre_dv-40" edge="1">
          <mxGeometry width="50" height="50" relative="1" as="geometry">
            <mxPoint x="1440" y="780" as="sourcePoint" />
            <mxPoint x="1490" y="730" as="targetPoint" />
          </mxGeometry>
        </mxCell>
        <mxCell id="Yvp6jD7t4m_mrtLre_dv-52" value="" style="endArrow=none;html=1;rounded=0;" parent="1" source="Yvp6jD7t4m_mrtLre_dv-30" target="Yvp6jD7t4m_mrtLre_dv-10" edge="1">
          <mxGeometry width="50" height="50" relative="1" as="geometry">
            <mxPoint x="990" y="370" as="sourcePoint" />
            <mxPoint x="1040" y="320" as="targetPoint" />
          </mxGeometry>
        </mxCell>
        <mxCell id="Yvp6jD7t4m_mrtLre_dv-53" value="" style="endArrow=classic;html=1;rounded=0;" parent="1" source="Yvp6jD7t4m_mrtLre_dv-17" target="Yvp6jD7t4m_mrtLre_dv-10" edge="1">
          <mxGeometry width="50" height="50" relative="1" as="geometry">
            <mxPoint x="980" y="590" as="sourcePoint" />
            <mxPoint x="1030" y="540" as="targetPoint" />
          </mxGeometry>
        </mxCell>
        <mxCell id="Yvp6jD7t4m_mrtLre_dv-54" value="zespoły" style="rounded=0;whiteSpace=wrap;html=1;" parent="1" vertex="1">
          <mxGeometry x="490" y="550" width="120" height="60" as="geometry" />
        </mxCell>
        <mxCell id="Yvp6jD7t4m_mrtLre_dv-55" value="&lt;u&gt;id_zespolu&lt;/u&gt;" style="ellipse;whiteSpace=wrap;html=1;" parent="1" vertex="1">
          <mxGeometry x="340" y="610" width="120" height="80" as="geometry" />
        </mxCell>
        <mxCell id="Yvp6jD7t4m_mrtLre_dv-56" value="" style="endArrow=none;html=1;rounded=0;" parent="1" source="Yvp6jD7t4m_mrtLre_dv-55" target="Yvp6jD7t4m_mrtLre_dv-54" edge="1">
          <mxGeometry width="50" height="50" relative="1" as="geometry">
            <mxPoint x="370" y="650" as="sourcePoint" />
            <mxPoint x="420" y="600" as="targetPoint" />
          </mxGeometry>
        </mxCell>
        <mxCell id="Yvp6jD7t4m_mrtLre_dv-57" value="specjalizacja" style="ellipse;whiteSpace=wrap;html=1;" parent="1" vertex="1">
          <mxGeometry x="470" y="660" width="120" height="80" as="geometry" />
        </mxCell>
        <mxCell id="Yvp6jD7t4m_mrtLre_dv-58" value="" style="endArrow=none;html=1;rounded=0;" parent="1" source="Yvp6jD7t4m_mrtLre_dv-57" target="Yvp6jD7t4m_mrtLre_dv-54" edge="1">
          <mxGeometry width="50" height="50" relative="1" as="geometry">
            <mxPoint x="680" y="580" as="sourcePoint" />
            <mxPoint x="730" y="530" as="targetPoint" />
          </mxGeometry>
        </mxCell>
        <mxCell id="Yvp6jD7t4m_mrtLre_dv-59" value="" style="endArrow=classic;html=1;rounded=0;" parent="1" source="Yvp6jD7t4m_mrtLre_dv-54" target="Yvp6jD7t4m_mrtLre_dv-17" edge="1">
          <mxGeometry width="50" height="50" relative="1" as="geometry">
            <mxPoint x="690" y="590" as="sourcePoint" />
            <mxPoint x="740" y="540" as="targetPoint" />
          </mxGeometry>
        </mxCell>
        <mxCell id="Yvp6jD7t4m_mrtLre_dv-60" value="id_zespolu" style="ellipse;whiteSpace=wrap;html=1;" parent="1" vertex="1">
          <mxGeometry x="760" y="610" width="120" height="80" as="geometry" />
        </mxCell>
        <mxCell id="Yvp6jD7t4m_mrtLre_dv-61" value="" style="endArrow=none;html=1;rounded=0;" parent="1" source="Yvp6jD7t4m_mrtLre_dv-60" target="Yvp6jD7t4m_mrtLre_dv-17" edge="1">
          <mxGeometry width="50" height="50" relative="1" as="geometry">
            <mxPoint x="830" y="620" as="sourcePoint" />
            <mxPoint x="880" y="570" as="targetPoint" />
          </mxGeometry>
        </mxCell>
      </root>
    </mxGraphModel>
  </diagram>
</mxfile>
